<svg width="43" height="44" viewBox="0 0 43 44" fill="none" xmlns="http://www.w3.org/2000/svg">
<path d="M28.4901 8.6666C28.4564 8.6278 28.4192 8.59394 28.3768 8.56476C28.3589 8.5526 28.3432 8.53952 28.3243 8.52889C28.2631 8.49503 28.199 8.46791 28.1287 8.45675L28.1283 8.45627C28.1283 8.45627 28.1275 8.45614 28.1271 8.45566L14.0148 6.21685C13.9433 6.20508 13.8739 6.21142 13.8064 6.22529C13.7892 6.22848 13.7727 6.23561 13.7557 6.24095C13.7052 6.25709 13.6575 6.27874 13.6135 6.30818C13.603 6.31456 13.5902 6.31592 13.58 6.32362L8.34987 10.2694C6.6439 11.5565 6.34273 14.0428 7.6779 15.8125L8.28559 16.618L6.12275 18.2498C4.41678 19.5368 4.11515 22.0235 5.45032 23.7932L17.7987 40.1609C19.1338 41.9307 21.6074 42.3229 23.3134 41.0359L33.8316 33.1005C35.5371 31.8138 35.8391 29.3276 34.504 27.5579L33.8959 26.7519L36.0592 25.1198C37.7652 23.8328 38.0667 21.3469 36.7316 19.5772L28.5212 8.69442C28.5125 8.68287 28.4997 8.67744 28.4901 8.6666ZM15.2837 7.61607L26.5742 9.40825L22.4067 12.5524C21.2124 13.4534 19.4801 13.1785 18.5453 11.9394L15.2837 7.61607ZM33.576 28.2572C34.5104 29.4958 34.2991 31.237 33.1052 32.1377L22.587 40.073C21.3926 40.9741 19.6604 40.6991 18.726 39.4606L6.37798 23.0934C5.44321 21.8543 5.65442 20.1132 6.84878 19.2121L9.47545 17.2305L11.6156 15.6159L15.3906 20.6196C16.7257 22.3894 19.1988 22.782 20.9043 21.4953L25.7282 17.856L32.6044 26.9704L33.576 28.2572ZM24.3468 17.3881L20.1788 20.5326C18.9849 21.4333 17.2535 21.1585 16.3187 19.9194L13.057 15.5961L24.3468 17.3881ZM35.3332 24.1575L33.1699 25.7895L26.2933 16.6746C26.2849 16.6636 26.2717 16.6576 26.2625 16.6473C26.2288 16.6085 26.1921 16.5743 26.1493 16.5446C26.1318 16.5329 26.1156 16.5202 26.0963 16.5091C26.036 16.4754 25.9714 16.4486 25.9011 16.4374C25.9007 16.437 25.8999 16.4368 25.8999 16.4368L11.7877 14.1972C11.7161 14.1862 11.6471 14.1922 11.5797 14.2061C11.5615 14.21 11.5452 14.2163 11.5276 14.222C11.4768 14.2376 11.4304 14.2591 11.3864 14.2885C11.3759 14.2949 11.3631 14.2963 11.3529 14.304L9.21279 15.9185L8.6051 15.113C7.67033 13.874 7.88154 12.1328 9.07544 11.2321L13.8422 7.6359L17.6176 12.6401C18.9528 14.4099 21.4267 14.8026 23.1327 13.5155L27.956 9.87663L35.803 20.2777C36.7383 21.5156 36.5271 23.2568 35.3332 24.1575Z" fill="white"/>
</svg>
